<?xml version="1.0" encoding="UTF-8"?>
<svg xmlns="http://www.w3.org/2000/svg" width="59.0" height="59.0" viewBox="2.499999999998528 2.5000000000007967 59.0 59.0" preserveAspectRatio="none">
  <g>
    <defs>
      <rect x="2.499999999998528" y="2.5000000000007967" width="59.0" height="59.0" rx="29.5" ry="29.5" id="s-Rectangle_1-d1224-path"></rect>
    </defs>
    <g style="mix-blend-mode:normal">
      <use xmlns:xlink="http://www.w3.org/1999/xlink" xlink:href="#s-Rectangle_1-d1224-path" fill="#004AE7" fill-opacity="1.0"></use>
    </g>
  </g>
  <g>
    <defs>
      <path id="s-Path_1-d1224" d="M39.99852167086732 12.364540819411879 L40.4291588305166 12.234543685717732 C40.444065169019666 12.250836659249508 40.46027147762004 12.269729575558486 40.47387784215181 12.286022549090262 C40.48878418065499 12.303615494010643 40.503690519158056 12.318521832513802 40.51859685378707 12.336114778725587 C40.5335031922902 12.351021117228754 40.54840953079332 12.370000698469148 40.56600247442242 12.386207008360913 C40.57952217660551 12.402499981892689 40.59442851510869 12.418706291784446 40.609334852320444 12.433612628996201 C40.64590737848124 12.470185155156983 40.681093270904796 12.504071077483353 40.71627915816265 12.53518372716968 C40.754238320643594 12.569069646913249 40.79072418574708 12.600182294016754 40.82729671190788 12.628608329537435 C40.86525587438865 12.658421006543755 40.90174173949231 12.684160435647208 40.93970090455588 12.708513233596264 C40.97766006703665 12.735639301602554 41.014145932140195 12.759992096968794 41.05210509720388 12.781658285917828 C41.09136423236464 12.803324474866848 41.130623367525516 12.822304057398654 41.168582527423496 12.84128363993046 C41.20784166258426 12.85887658485084 41.244414188745 12.875169559674028 41.28505995764306 12.890075899468599 C41.32301912012389 12.906368873000368 41.36089161896467 12.91850194015489 41.401537387862675 12.930721670949431 C41.43949655034345 12.938868157715312 41.47875568292153 12.95100122357843 41.519314788179486 12.9564611026357 C41.55857392334036 12.963220953727266 41.59653308323834 12.969980804818832 41.635792218399104 12.971367441138852 C41.67505135355992 12.974054048524629 41.7130105134579 12.974054048524629 41.75226964861872 12.97275407729746 C41.790228811099496 12.97006746991169 41.82810130994028 12.965994226205886 41.86874707883828 12.957847738794293 C41.90531960499902 12.952387859091324 41.943192106422714 12.942941400291133 41.98253790005788 12.932108307108031 C42.04614983316776 12.911828754479025 42.10170193927752 12.888775929209977 42.14910756507851 12.861649858620872 C42.20188640371384 12.83322381793458 42.243918806349086 12.803411143511063 42.277718059869756 12.768225256253118 C42.31290394971063 12.734339336509557 42.340030017716856 12.693780228668743 42.3603095729286 12.653134464936343 C42.38197576187764 12.60980208703829 42.395495462769475 12.562396461237377 42.40095534440951 12.512304236767683 C42.406415224112436 12.460825373395139 42.406415224112436 12.405359930925385 42.39956870825091 12.348421180747152 C42.39280885715931 12.29018246563735 42.379289155621905 12.230643780430348 42.35892293677006 12.162871935777602 C42.33864338414105 12.097873368930522 42.31290394987201 12.027414925608987 42.27901803271118 11.955656501859025 C42.2465187492877 11.881211474274643 42.207259614126826 11.80537981811868 42.15846735458871 11.72547491922547 L41.909306181674935 11.292151140244965 C41.887639992725894 11.251505368764125 41.86866041019414 11.21631947892337 41.85375407556518 11.181133586499811 C41.83616113064477 11.147247666756243 41.823941398558816 11.11613501965273 41.8144949404043 11.087708984132053 C41.805048482249845 11.057896307125734 41.798201966872625 11.029470269022255 41.79551535916397 11.005117471073198 C41.79144211578108 10.979378039386926 41.79005547946093 10.959098484175119 41.79412872300537 10.937432295226092 C41.796815330391155 10.91715274259709 41.80088857409686 10.899473132745285 41.80903506150855 10.881880189116313 C41.81718154892013 10.864287245487336 41.82662800642885 10.850767542012804 41.84153434493203 10.837161177481047 C41.85644068343521 10.82225483897789 41.872646992035584 10.810035109474757 41.89301320830458 10.801975287640293 C41.91060615322493 10.789755556845758 41.9322723434654 10.78030909869127 41.958011775151704 10.77216261063397 C41.98375120683795 10.766702730931001 42.01217724752422 10.759942879839436 42.04198992194773 10.758642908450835 C42.07041596263406 10.757256272292242 42.098842003320385 10.758642908450835 42.128654677743896 10.761329515836607 C42.158467354750144 10.766789395539575 42.1895800018537 10.773549246631148 42.22077931001445 10.784382341105658 C42.25197861817509 10.795215435580172 42.28309126786138 10.81012177279193 42.31689052138216 10.826328082683684 C42.34800316848566 10.843921027604061 42.37920247922921 10.86428724516449 42.41031512374991 10.889940015793542 C42.441427770853466 10.914292811159786 42.475313690597034 10.942718854428904 42.505126365020544 10.973918162589623 C42.539012284764055 11.005030809693135 42.571511565604794 11.042989972173942 42.602624215291144 11.080862468431913 C42.633736862394585 11.121508239912746 42.66493617313813 11.163453981490772 42.69604881765889 11.209472963223234 C42.72178824934514 11.246045489384013 42.743454438294236 11.282618015544791 42.76373399350598 11.315117298968328 C42.785400182454964 11.351689825129107 42.80706637140406 11.388262351289889 42.82335934751859 11.422061604810619 C42.84233892875909 11.457247494651376 42.86131850999942 11.493820023394967 42.87752481989122 11.52770594055572 C42.8938177934229 11.562891830396474 42.90863746699472 11.598164389042871 42.92354380678927 11.633350276300817 C42.937063508972415 11.668536166141578 42.946596632058345 11.705108694885169 42.9560430902128 11.740294582143115 C42.96150296991584 11.77686710830389 42.96687618468735 11.812053000727452 42.96956279239595 11.84186568031658 C42.973636035778895 11.872978327420107 42.97632264348749 11.901491034329226 42.97632264348749 11.919083975375386 C42.97632264348749 11.940750164324413 42.97632264348749 11.951583258798927 42.97632264348749 11.952969895118954 L42.981782523190475 11.965189625913496 L42.983169159349075 11.974636084067981 L42.98862903905206 11.986855814862523 L42.9940889187551 11.99500230162841 L43.00760862093813 12.011295275160187 L43.02520156585848 12.027588248691963 L43.04149453939033 12.041107950875102 L43.06316072833937 12.050554409029594 L43.47620493661117 12.230643777524683 L43.501944368297416 12.238790264290571 L43.52629716366374 12.241476871676348 L43.547963352612726 12.238790264290571 L43.56694293385311 12.234717020907631 L43.581849272356294 12.221197318724492 L43.594069003150764 12.206290980221333 L43.598142246533655 12.187311398980938 L43.59675561037517 12.167031846351932 C43.59675561037517 12.164345238966156 43.598142246533655 12.146752293722933 43.60082885375812 12.119626225716637 C43.59814224637233 12.095273430350396 43.59814224637233 12.060000871703998 43.59536897405508 12.015368528874376 C43.591295730672186 11.97342278729635 43.58592251590068 11.926017164078246 43.57638939281475 11.875924939608538 C43.56694293466023 11.824446076236015 43.554723203865706 11.771667242766284 43.53444365123664 11.720188369062505 C43.52361055676221 11.691762328376207 43.50870421955051 11.660563015049853 43.49518451607594 11.629450365363532 C43.482964785281354 11.598337718260026 43.46944508438963 11.5685250412537 43.45453874459503 11.536025762995791 C43.43824577106329 11.504913115892279 43.42203946117155 11.47241382988593 43.405746485056966 11.441214521725197 C43.3881535401365 11.410101874621692 43.37056059521615 11.37760258861534 43.352967646421575 11.345103310357423 L43.714533001652114 11.235385726709456 L43.354354264661936 10.697804240555442 L42.98334243319721 10.810208433203435 C42.97112270240274 10.795302094700272 42.95760300151096 10.780395756197112 42.94538327071649 10.766876055305381 C42.93186356853329 10.751969716802229 42.919643839030186 10.739749987299092 42.90742410823566 10.72493031372736 C42.89520437744102 10.71011064015563 42.881684676549355 10.69650427304106 42.86816497307473 10.682984572149334 C42.854645270891695 10.670764841354789 42.84103890506856 10.65585850414304 42.82621923149679 10.642338800668494 C42.79371994807326 10.611226153564985 42.76122066464973 10.582713446655859 42.727334742323364 10.552987435872371 C42.694835458899774 10.523174758866048 42.66094954173906 10.496135354499781 42.625763644149856 10.470395922813509 C42.59187772440629 10.444656491127237 42.55807846830277 10.421603663275373 42.52150594730756 10.398637504229157 C42.48493342114676 10.37428470886292 42.44836089498597 10.353918492593895 42.4145616414653 10.3350255711193 C42.376602478984466 10.3147460184903 42.34011661388092 10.294379799638463 42.30484405781732 10.27817348974671 C42.268271531656524 10.261880516214923 42.231699005495784 10.247060842643194 42.19512647416934 10.233454478111444 C42.157167311688625 10.219934775928305 42.12068144658497 10.209101682745203 42.08272228152134 10.19956855836788 C42.04614975536066 10.190122100213387 42.009577229199806 10.180588977127474 41.97170472777623 10.175215763001638 C41.933745565295396 10.168455911910065 41.897259700191796 10.162996032207097 41.85930053512823 10.160309424498475 C41.82272800896749 10.157622817112706 41.78485550754391 10.157622817112706 41.74958295148019 10.160309424498475 C41.714310395416646 10.16299603188424 41.677824532895954 10.165769304201447 41.6412520067351 10.17382912668161 C41.6060661168944 10.180588977773184 41.572180197150885 10.186048857476152 41.536994309892805 10.19956855836788 C41.47199574304574 10.217161503288256 41.415143661673255 10.240214329848712 41.367738046203556 10.265953758952165 C41.31764581656819 10.293079826958458 41.27700004250454 10.32419247406198 41.24311413050941 10.356691762651138 C41.20922821076584 10.391877652491893 41.179502197399586 10.428450181235483 41.15913598371344 10.469095955299125 C41.14015640247294 10.509741726779964 41.12802333660983 10.554374077358016 41.121176821232496 10.601779697993312 C41.117103577849605 10.65057195753144 41.117103577849605 10.701964157263951 41.123863428618336 10.757516268539352 C41.13062327970982 10.811681740911911 41.14284300985872 10.868533822284508 41.16043595477919 10.930845780131556 C41.17941553601952 10.99177110424139 41.20515496641434 11.054083067254059 41.232194373363484 11.123154882003998 C41.263307020466925 11.190840057851098 41.29857957394779 11.262598471269829 41.34052531810863 11.3344435534942 L41.6262590120175 11.82869266175016 C41.64653856464656 11.86665182423097 41.66421817449833 11.903137689334535 41.68042448439007 11.937023606495295 C41.69394418657322 11.970909526238863 41.70616391607638 12.002022173342361 41.7143104041337 12.031834847765879 C41.72245689089954 12.06026088845217 41.727830106316844 12.086000320138439 41.73060337766543 12.111739751824707 C41.73199001382409 12.134792577093755 41.73199001382409 12.157758738722784 41.72791677027959 12.17673831867178 C41.72523016289392 12.197017871300787 41.71847031212519 12.21469748115259 41.71032382535924 12.230903791044348 C41.699490730884804 12.24988337228475 41.68727100009028 12.264789710787909 41.6737512991985 12.276922777942424 C41.658844960695376 12.29182911644559 41.64393862219225 12.30404884594872 41.62495903966038 12.313495304103206 C41.604679487031376 12.324328398577727 41.584313268179585 12.333774856732205 41.55857383907613 12.340621372109496 C41.524687919332564 12.351454466584016 41.489502029491746 12.355527710612662 41.45431614223389 12.358214317029876 C41.41913025239302 12.359600953188476 41.383857693746734 12.355527709644107 41.34867180648871 12.34876785887539 C41.31209928032797 12.340621372109496 41.27691338790436 12.325715033606336 41.23895422284079 12.310808696394588 C41.20376833300003 12.29182911515418 41.16580917051925 12.271549561233776 41.12655003019273 12.245810129547507 C41.08997750403199 12.217384088861209 41.053404977871196 12.187571414437706 41.01821908544764 12.157758734848578 C40.98164655928679 12.12387281510501 40.94646066686329 12.090073559001468 40.91257474970257 12.054801008103503 C40.87738885986181 12.016841845622693 40.843502940118185 11.97758271304469 40.80961702295747 11.935636968883863 C40.77711773953388 11.88961798198578 40.744618456110345 11.846285604087733 40.71211917268687 11.797493349715218 C40.68499310468053 11.759534187234422 40.6620269430515 11.720275054656419 40.63897412036533 11.68240255839845 C40.61592129509614 11.643143423237639 40.59425510873007 11.606570897076857 40.572588919781026 11.56462515808164 C40.55360933854058 11.52666599560083 40.53462975730025 11.48610688776003 40.51573683840843 11.445461118862 C40.49675725716804 11.406201983701198 40.47916431224763 11.364169575900334 40.46564460877306 11.323610470642333 C40.448051663852766 11.2829646991615 40.438518540766836 11.2355590759434 40.433145325349585 11.190926727948153 C40.426385474257984 11.14352110731286 40.423698867195014 11.098802095677595 40.42499883858363 11.058242985253973 C40.42361220242509 11.014910607355926 40.42638547474229 10.979724714932356 40.42768544596947 10.952598649508872 C40.42898541719666 10.925472584085394 40.433145325672456 10.91065290793085 40.433145325672456 10.90519302887358 L40.43045871828667 10.891673326690444 L40.42777211090083 10.878153624507313 L40.42231223119791 10.867320530032803 L40.41416574443201 10.85380082784966 L40.400646042248866 10.838894489346497 L40.38573970374574 10.822601515814721 L40.3667601225053 10.81038178502018 L40.347780541264854 10.799548690545663 L39.9076969053815 10.607239588673224 L39.88464408011248 10.599093101907336 L39.861591254843404 10.59640649452156 L39.838538429574385 10.597793130680163 L39.82094548465392 10.603253010383131 L39.804652511122185 10.612699468537624 L39.7924327803276 10.630292413458001 L39.78835953694471 10.64519875196116 L39.78697290078611 10.66547830459016 C39.78697290078611 10.670938184293128 39.78289965740322 10.695290981596479 39.78151302108313 10.73047687143724 C39.778826413697345 10.764362791180798 39.7760531413802 10.814455018233307 39.7760531413802 10.872693738508737 C39.77873974876593 10.928245844618516 39.78281299247175 10.99047113882554 39.79095947988333 11.05416974590667 C39.80040593803784 11.116481703753717 39.81262566883231 11.18009363169796 39.835678491518536 11.235645753304595 C39.85058483002177 11.274904888465407 39.865491168524954 11.312864048363409 39.8816974784167 11.35073654462138 C39.89799045194843 11.387309070782162 39.915583398160265 11.425181572205751 39.935862950789215 11.464527365840958 C39.95215592432106 11.50109989200174 39.97243547695001 11.540359027162552 39.994101665898995 11.579618157157732 C40.014381218528 11.618877292318551 40.03604740747704 11.659523061216568 40.05771359900888 11.69878219637738 L39.63660953274331 11.826092721071504 L39.99852167086732 12.364540819411879 Z "></path>
    </defs>
    <g style="mix-blend-mode:normal">
      <use xmlns:xlink="http://www.w3.org/1999/xlink" xlink:href="#s-Path_1-d1224" fill="#FFFFFF" fill-opacity="1.0"></use>
    </g>
  </g>
  <g>
    <defs>
      <path id="s-Path_2-d1224" d="M38.88132706564318 15.38567425936586 C40.06074774512473 16.282134481419153 41.42441764782234 16.7966631603838 42.621431113381504 16.7966631603838 C43.570670189566954 16.7966631603838 44.34527983571934 16.46491046924552 44.80026980364886 15.862330416244426 L45.712936358839215 14.65847031133315 C46.23561151294717 13.970525462301898 46.3033833575999 13.007766630985628 45.90524546071174 11.947510073373671 C45.51386744138887 10.904846384489167 44.71360506851522 9.887835422325933 43.6560351302345 9.087573132102284 C42.47254020071949 8.189726126508738 41.110257412161786 7.676497461206041 39.91454403034362 7.676497461206041 C38.96530495415806 7.676497461206041 38.19069530800584 8.006950171915882 37.734405421635245 8.609530204254492 L36.821738866444946 9.813390309165765 C35.75602162652143 11.216232805119391 36.68082036812774 13.717377710290883 38.88132706564318 15.38567425936586 Z M38.43578167299887 9.140351820934596 C38.728275223810726 8.755733617189703 39.23604404587252 8.55267809997963 39.90500920131109 8.55267809997963 C40.900267274725934 8.55267809997963 42.102740678746954 9.014427924812063 43.12243826024144 9.787650870074094 C43.99315905577407 10.448469633019377 44.66888415076545 11.274471432413623 45.027676186865335 12.116766182094352 C45.37164861138103 12.927861649442466 45.366188714244004 13.660525453287143 45.01276984836227 14.126348515691195 C44.71888965864753 14.512266679202039 44.21250747548868 14.715408854886508 43.544842238491015 14.715408854886508 C42.54958416507617 14.715408854886508 41.34572406016491 14.254958989820025 40.32472672552933 13.479049466551697 C39.455392548237 12.820917322937687 38.77828083500515 11.99491552354344 38.42078871734634 11.151320855421739 C38.0769909592982 10.341438772015124 38.08236254496177 9.608861502669921 38.43578167299887 9.140351820934596 Z "></path>
    </defs>
    <g style="mix-blend-mode:normal">
      <use xmlns:xlink="http://www.w3.org/1999/xlink" xlink:href="#s-Path_2-d1224" fill="#FFFFFF" fill-opacity="1.0"></use>
    </g>
  </g>
  <g>
    <defs>
      <path id="s-Path_3-d1224" d="M44.06899079971808 36.09577848464528 C43.48807693566599 36.09577848464528 41.464974805613394 36.09577848464528 38.52105989317707 36.09577848464528 C36.15398544192135 36.09577848464528 35.69899547399177 35.699027226659894 35.69899547399177 35.059874652663694 C35.69899547399177 34.33267070463094 36.88387600928536 33.058438794210105 37.15608998938848 32.60214890783956 C37.42960394992005 32.14715893991004 39.15882576628306 30.59941313094501 39.52177790505385 28.321690054816656 C39.888716498946906 26.046740215168967 37.15608998938848 24.406869629295983 36.246110053529435 25.95600213915128 C35.70584194804414 26.87542855124451 34.33402557020321 29.597308418177988 32.694241601479604 30.780802500531024 C29.654215374363048 32.97723405952584 27.13955059008589 37.757315342117266 23.97221401390641 37.757315342117266 L23.97221401390641 48.06227464141023 C26.58298978226398 48.06227464141023 32.49647282975761 50.96415742498925 34.59133305296035 51.38396132486406 C36.96378074287861 51.85923086350229 40.06343229817966 52.90735432554882 41.70867612271522 50.67305032711786 C42.72291376574782 49.29586071061439 44.312692116819875 45.58556924431841 45.50571904460668 41.79268592919817 C48.53092712717557 38.88534262860759 46.44143848963637 36.09577848464528 44.06899079971808 36.09577848464528 Z "></path>
    </defs>
    <g style="mix-blend-mode:normal">
      <use xmlns:xlink="http://www.w3.org/1999/xlink" xlink:href="#s-Path_3-d1224" fill="#FFFFFF" fill-opacity="1.0"></use>
    </g>
  </g>
  <g>
    <defs>
      <path id="s-Rect_1-d1224" d="M39.06817414213458 16.75333061718476 L39.719546428845774 16.75333061718476 L39.719546428845774 22.084599634235403 L39.06817414213458 22.084599634235403 Z "></path>
    </defs>
    <g style="mix-blend-mode:normal">
      <use xmlns:xlink="http://www.w3.org/1999/xlink" xlink:href="#s-Rect_1-d1224" fill="#FFFFFF" fill-opacity="1.0"></use>
    </g>
  </g>
  <g>
    <defs>
      <path id="s-Rect_2-d1224" d="M41.79019648081953 23.81507281149524 L41.138824194108395 23.817808575001806 L41.11643286503522 18.486539557951346 L41.767805151746245 18.483803794444697 Z "></path>
    </defs>
    <g style="mix-blend-mode:normal">
      <use xmlns:xlink="http://www.w3.org/1999/xlink" xlink:href="#s-Rect_2-d1224" fill="#FFFFFF" fill-opacity="1.0"></use>
    </g>
  </g>
  <g>
    <defs>
      <path id="s-Path_4-d1224" d="M15.052591550113107 40.443922358550765 L15.052591550113107 49.18891605351399 C15.052591550113107 50.471294439078065 16.092568619666338 51.51127159128134 17.3749470878804 51.51127159128134 L20.14683257246533 51.51127159128134 C21.002647035951853 51.51127159128134 21.695965082320654 50.817953544912484 21.695965082320654 49.9635257823162 L21.695965082320654 38.1216536032328 L17.374946757280583 38.1216536032328 C16.092568619666338 38.1215671513832 15.052591550113107 39.162930095327226 15.052591550113107 40.443922358550765 Z "></path>
    </defs>
    <g style="mix-blend-mode:normal">
      <use xmlns:xlink="http://www.w3.org/1999/xlink" xlink:href="#s-Path_4-d1224" fill="#FFFFFF" fill-opacity="1.0"></use>
    </g>
  </g>
</svg>
